# xmcd
#
# Track frame offsets: 
#        150
#        14530
#        30487
#        45452
#        59392
#        77780
#        94930
#        110847
#        126290
#        139392
#        156040
#        171565
#        185892
#        202010
#        217707
#        233475
#        248362
#        265002
#        279787
#        297085
#        313367
#        328565
#
# Disc length: 4570 seconds
#
# Revision: 0
# Processed by: cddbd v1.5.2PL0 Copyright (c) Steve Scherf et al.
# Submitted via: ExactAudioCopy v1.0b2
#
DISCID=3f11d816
DTITLE=Stefanie Hertel - Singen macht frei
DYEAR=2000
DGENRE=Volksmusik
TTITLE0=mit Stefan Mross - Ein Lied für jeden Sonnenstrahl
TTITLE1=Hast Du Zeit für ein paaar Träume
TTITLE2=Ein kleines Blatt am Baum des Lebens
TTITLE3=Ein Geschenk des Himmels
TTITLE4=Stefanie Hertel and Stefan Mross - Die Kraft der Träume
TTITLE5=Es ist gut, dass es Freunde gibt
TTITLE6=Da gibt es noch die grünen Wiesen
TTITLE7=Immer wenn die Schwalben ziehen
TTITLE8=Alles geht, wenn man es wirklich will
TTITLE9=Nicht jeder kann ein Mozart sein
TTITLE10=Streich den Himmel einfach blau
TTITLE11=Stefanie Hertel and Stefan Mross - Und dann brauch ich Dir nur 
TTITLE11=in Deine Augen zu sehen
TTITLE12=Das Herz der kleinen Stadt
TTITLE13=Auch die Sterne müssen warten
TTITLE14=Ich hab ein Handy in meinem Herzen
TTITLE15=Goldene Hände
TTITLE16=Mein Schutzengellied
TTITLE17=Stefanie Hertel and Stefan Mross - Irgendwo schlägt ein Herz au
TTITLE17=ch für Dich
TTITLE18=Du bist mein kleines Geheimnis
TTITLE19=Auch ganz kleine Lügen tun weh
TTITLE20=Tausend kleine Himmel
TTITLE21=Ciao Ciao Hotel Mama
EXTD=
EXTT0=
EXTT1=
EXTT2=
EXTT3=
EXTT4=
EXTT5=
EXTT6=
EXTT7=
EXTT8=
EXTT9=
EXTT10=
EXTT11=
EXTT12=
EXTT13=
EXTT14=
EXTT15=
EXTT16=
EXTT17=
EXTT18=
EXTT19=
EXTT20=
EXTT21=
PLAYORDER=
